<svg preserveAspectRatio="none" width="100%" height="100%" overflow="visible" style="display: block;" viewBox="0 0 32 32" fill="none" xmlns="http://www.w3.org/2000/svg">
<path id="Shape" d="M26.791 0C27.1697 1.1131e-05 27.5161 0.214122 27.6855 0.552734L31.3477 7.87598C31.3823 7.94523 31.4003 8.02219 31.4004 8.09961V30.4004C31.4002 30.9524 30.9524 31.4002 30.4004 31.4004H1C0.447935 31.4003 0.00021123 30.9524 0 30.4004V8.09961C9.01648e-05 8.02219 0.0181074 7.94523 0.0527344 7.87598L3.71484 0.552734C3.88425 0.214134 4.23076 7.22523e-05 4.60938 0H26.791ZM1 30.4004H30.4004V8.59961H1V30.4004ZM20.7676 15.2002C21.0434 15.2006 21.2676 15.4243 21.2676 15.7002C21.2676 15.9761 21.0434 16.1998 20.7676 16.2002H10.6338C10.3576 16.2002 10.1338 15.9763 10.1338 15.7002C10.1338 15.4241 10.3576 15.2002 10.6338 15.2002H20.7676ZM1.30957 7.59961H15.2002V1H4.60938L1.30957 7.59961ZM16.2002 7.59961H30.0908L26.791 1H16.2002V7.59961Z" fill="var(--fill-0, #18181B)"/>
</svg>
