<svg width="42" height="42" viewBox="0 0 42 42" fill="none" xmlns="http://www.w3.org/2000/svg">
<path d="M13.125 14.4375V11.8125C13.125 9.72392 13.9547 7.72088 15.4315 6.24403C16.9084 4.76719 18.9114 3.9375 21 3.9375C23.0886 3.9375 25.0916 4.76719 26.5685 6.24403C28.0453 7.72088 28.875 9.72392 28.875 11.8125V14.4375M8.3125 14.4375C7.9644 14.4375 7.63056 14.5758 7.38442 14.8219C7.13828 15.0681 7 15.4019 7 15.75L5.25 33.4688C5.25 35.9502 7.36225 38.0625 9.84375 38.0625H32.1562C34.6377 38.0625 36.75 36.0518 36.75 33.572L35 15.75C35 15.4019 34.8617 15.0681 34.6156 14.8219C34.3694 14.5758 34.0356 14.4375 33.6875 14.4375H8.3125Z" stroke="#1C1C1C" stroke-width="3" stroke-linecap="round" stroke-linejoin="round"/>
</svg>
