<svg preserveAspectRatio="none" width="100%" height="100%" overflow="visible" style="display: block;" viewBox="0 0 27 32" fill="none" xmlns="http://www.w3.org/2000/svg">
<path id="Shape" d="M13.1406 17.8604C17.1439 17.8604 20.4499 18.8936 22.7529 21.1631C25.0571 23.4341 26.2832 26.8683 26.2832 31.5078C26.283 31.7699 26.0697 31.9833 25.8076 31.9834C25.5455 31.9833 25.3332 31.7699 25.333 31.5078C25.333 27.0282 24.1513 23.8754 22.0859 21.8398C20.019 19.803 16.9903 18.8096 13.1406 18.8096C9.291 18.8097 6.26313 19.803 4.19629 21.8398C2.13085 23.8754 0.949286 27.0281 0.949219 31.5078C0.949047 31.7699 0.736732 31.9833 0.474609 31.9834C0.21238 31.9834 0.000171827 31.77 0 31.5078C6.70595e-05 26.8681 1.225 23.4341 3.5293 21.1631C5.83219 18.8936 9.13741 17.8604 13.1406 17.8604ZM13.1416 0C17.8109 0.000334492 21.5957 3.78574 21.5957 8.45508C21.5954 13.1242 17.8107 16.9088 13.1416 16.9092C8.47219 16.9092 4.68678 13.1244 4.68652 8.45508C4.68656 3.78554 8.47205 0 13.1416 0ZM13.1416 0.949219C8.99672 0.949219 5.63578 4.31021 5.63574 8.45508C5.636 12.5998 8.99686 15.96 13.1416 15.96C17.2861 15.9596 20.6462 12.5996 20.6465 8.45508C20.6464 4.31041 17.2862 0.949553 13.1416 0.949219Z" fill="var(--fill-0, #18181B)"/>
</svg>
