<svg preserveAspectRatio="none" width="100%" height="100%" overflow="visible" style="display: block;" viewBox="0 0 13 13" fill="none" xmlns="http://www.w3.org/2000/svg">
<path id="Shape" d="M12 0C12.5523 0 13 0.447716 13 1V12C13 12.5523 12.5523 13 12 13H4.5C4.22386 13 4 12.7761 4 12.5C4 12.2239 4.22386 12 4.5 12H12V1H4.5C4.22386 1 4 0.776142 4 0.5C4 0.223858 4.22386 0 4.5 0H12ZM5.89648 3.89648C6.09175 3.70122 6.40825 3.70122 6.60352 3.89648L8.85352 6.14648C9.04878 6.34175 9.04878 6.65825 8.85352 6.85352L6.60352 9.10352C6.40825 9.29878 6.09175 9.29878 5.89648 9.10352C5.70122 8.90825 5.70122 8.59175 5.89648 8.39648L7.29297 7H0.5C0.223858 7 0 6.77614 0 6.5C0 6.22386 0.223858 6 0.5 6H7.29297L5.89648 4.60352C5.70122 4.40825 5.70122 4.09175 5.89648 3.89648Z" fill="var(--fill-0, #18181B)"/>
</svg>
