<svg preserveAspectRatio="none" width="100%" height="100%" overflow="visible" style="display: block;" viewBox="0 0 8 8" fill="none" xmlns="http://www.w3.org/2000/svg">
<path id="Shape" d="M6.36772 0.1685C6.59225 -0.0560294 6.95664 -0.055986 7.1812 0.1685C7.40562 0.393027 7.40562 0.756474 7.1812 0.981L4.48686 3.67436L7.1812 6.36772C7.40575 6.59227 7.40575 6.95664 7.1812 7.1812C6.95664 7.40575 6.59227 7.40575 6.36772 7.1812L3.67436 4.48686L0.981 7.1812C0.756474 7.40562 0.393027 7.40562 0.1685 7.1812C-0.055986 6.95664 -0.0560293 6.59225 0.1685 6.36772L2.86088 3.67436L0.1685 0.981C-0.0559858 0.756444 -0.0560293 0.39303 0.1685 0.1685C0.39303 -0.0560292 0.756444 -0.0559858 0.981 0.1685L3.67436 2.86088L6.36772 0.1685Z" fill="var(--fill-0, #18181B)"/>
</svg>
