<svg preserveAspectRatio="none" width="100%" height="100%" overflow="visible" style="display: block;" viewBox="0 0 15 7" fill="none" xmlns="http://www.w3.org/2000/svg">
<path id="Shape" d="M14.0762 0.235352C14.2225 0.0012425 14.5305 -0.0700377 14.7646 0.0761719C14.9986 0.22255 15.07 0.53058 14.9238 0.764648C14.4847 1.46716 13.9622 2.10545 13.3691 2.66211L14.5713 3.86426C14.7663 4.05954 14.7664 4.37612 14.5713 4.57129C14.3761 4.76645 14.0595 4.76626 13.8643 4.57129L12.5996 3.30664C11.8034 3.90138 10.9078 4.36043 9.93262 4.64941L10.3828 6.32812C10.4539 6.59461 10.2957 6.86892 10.0293 6.94043C9.76283 7.01166 9.48866 6.85322 9.41699 6.58691L8.95801 4.87695C8.4866 4.95731 7.99999 4.99999 7.5 5C6.99941 5 6.51198 4.95748 6.04004 4.87695L5.58301 6.58691C5.5114 6.85321 5.23714 7.01153 4.9707 6.94043C4.70423 6.869 4.5452 6.59463 4.61621 6.32812L5.06641 4.64941C4.09126 4.36038 3.19554 3.90141 2.39941 3.30664L1.13574 4.57129C0.940546 4.76641 0.623968 4.76631 0.428711 4.57129C0.233472 4.37605 0.233517 4.05953 0.428711 3.86426L1.62988 2.66211C1.03703 2.10556 0.515152 1.46697 0.0761719 0.764648C-0.0700374 0.530502 0.00124262 0.222491 0.235352 0.0761719C0.46949 -0.0699844 0.777523 0.00126395 0.923828 0.235352C2.34346 2.50649 4.69231 4 7.5 4C10.3077 3.99993 12.6566 2.50654 14.0762 0.235352Z" fill="var(--fill-0, #09090B)"/>
</svg>
