<svg preserveAspectRatio="none" width="100%" height="100%" overflow="visible" style="display: block;" viewBox="0 0 11 14" fill="none" xmlns="http://www.w3.org/2000/svg">
<path id="Shape" d="M5.47559 0C7.47721 0.000329784 9.10037 1.62335 9.10059 3.625C9.10041 5.28024 7.98965 6.67448 6.47363 7.1084C7.67094 7.25306 8.69757 7.67558 9.4707 8.4375C10.4524 9.4052 10.9493 10.8458 10.9492 12.7256C10.9489 12.9876 10.7367 13.2002 10.4746 13.2002C10.2127 13.2 10.0003 12.9875 10 12.7256C10 11.0056 9.54678 9.84557 8.80371 9.11328C8.05925 8.37974 6.94767 8.00001 5.47461 8C4.00173 8.00007 2.88989 8.37982 2.14551 9.11328C1.4027 9.8456 0.949219 11.0059 0.949219 12.7256C0.948874 12.9876 0.736732 13.2002 0.474609 13.2002C0.212666 13.2 0.000343727 12.9875 0 12.7256C0 10.8461 0.497054 9.40519 1.47852 8.4375C2.25104 7.67616 3.27752 7.25435 4.47363 7.10938C2.95905 6.6746 1.85076 5.27929 1.85059 3.625C1.8508 1.62315 3.47368 0 5.47559 0ZM5.47559 0.949219C3.99835 0.949219 2.80002 2.14782 2.7998 3.625C2.80002 5.10218 3.99835 6.2998 5.47559 6.2998C6.95254 6.29947 8.15018 5.10198 8.15039 3.625C8.15018 2.14802 6.95254 0.949549 5.47559 0.949219Z" fill="var(--fill-0, #18181B)"/>
</svg>
